M48
; DRILL file {KiCad (5.1.5)-3} date 2021-09-06 오전 10:27:45
; FORMAT={-:-/ absolute / metric / decimal}
; #@! TF.CreationDate,2021-09-06T10:27:45+09:00
; #@! TF.GenerationSoftware,Kicad,Pcbnew,(5.1.5)-3
; #@! TF.FileFunction,Plated,1,2,PTH
FMAT,2
METRIC
T1C0.400
T2C0.500
T3C0.550
T4C1.000
%
G90
G05
T1
X82.347Y-67.018
X88.951Y-41.872
X89.332Y-45.301
X90.602Y-61.049
X91.872Y-69.05
X91.872Y-73.622
X92.634Y-66.891
X95.936Y-62.954
X98.984Y-49.238
X100.254Y-61.176
X101.016Y-68.034
X105.334Y-70.193
X105.334Y-74.892
X106.096Y-45.809
X106.604Y-61.938
X110.16Y-62.954
X110.414Y-56.858
X110.922Y-59.144
X112.7Y-68.796
X113.716Y-48.857
X116.129Y-55.461
T4
X113.716Y-57.62
X113.716Y-60.16
X113.716Y-62.7
X113.716Y-65.24
X81.458Y-63.462
X83.998Y-63.462
X86.538Y-63.462
X81.458Y-60.922
X83.998Y-60.922
X86.538Y-60.922
X81.46Y-48.222
X84.0Y-48.222
X86.54Y-48.222
X81.458Y-45.682
X83.998Y-45.682
X86.538Y-45.682
X81.458Y-58.382
X83.998Y-58.382
X86.538Y-58.382
X81.458Y-69.558
X83.998Y-69.558
X86.538Y-69.558
X81.46Y-53.302
X84.0Y-53.302
X86.54Y-53.302
X81.458Y-55.842
X83.998Y-55.842
X86.538Y-55.842
X113.716Y-43.777
X113.716Y-46.317
X113.716Y-48.857
X113.716Y-51.397
X81.46Y-43.12
X84.0Y-43.12
X86.54Y-43.12
X81.458Y-50.762
X83.998Y-50.762
X86.538Y-50.762
T2
G00X96.5Y-79.675
M15
G01X96.5Y-80.325
M16
G05
G00X103.5Y-79.675
M15
G01X103.5Y-80.325
M16
G05
T3
G00X97.35Y-77.3
M15
G01X97.65Y-77.3
M16
G05
G00X102.35Y-77.3
M15
G01X102.65Y-77.3
M16
G05
T0
M30
