G04 #@! TF.GenerationSoftware,KiCad,Pcbnew,(5.1.5)-3*
G04 #@! TF.CreationDate,2021-09-06T10:27:39+09:00*
G04 #@! TF.ProjectId,MKSP32_v2,4d4b5350-3332-45f7-9632-2e6b69636164,rev?*
G04 #@! TF.SameCoordinates,Original*
G04 #@! TF.FileFunction,Legend,Top*
G04 #@! TF.FilePolarity,Positive*
%FSLAX46Y46*%
G04 Gerber Fmt 4.6, Leading zero omitted, Abs format (unit mm)*
G04 Created by KiCad (PCBNEW (5.1.5)-3) date 2021-09-06 10:27:39*
%MOMM*%
%LPD*%
G04 APERTURE LIST*
%ADD10C,0.150000*%
%ADD11C,0.200000*%
%ADD12C,0.127000*%
%ADD13C,0.120000*%
%ADD14C,0.254000*%
G04 APERTURE END LIST*
D10*
X83664666Y-71727380D02*
X83998000Y-72727380D01*
X84331333Y-71727380D01*
X115538571Y-57943809D02*
X115652857Y-57981904D01*
X115843333Y-57981904D01*
X115919523Y-57943809D01*
X115957619Y-57905714D01*
X115995714Y-57829523D01*
X115995714Y-57753333D01*
X115957619Y-57677142D01*
X115919523Y-57639047D01*
X115843333Y-57600952D01*
X115690952Y-57562857D01*
X115614761Y-57524761D01*
X115576666Y-57486666D01*
X115538571Y-57410476D01*
X115538571Y-57334285D01*
X115576666Y-57258095D01*
X115614761Y-57220000D01*
X115690952Y-57181904D01*
X115881428Y-57181904D01*
X115995714Y-57220000D01*
X116338571Y-57981904D02*
X116338571Y-57181904D01*
X116529047Y-57181904D01*
X116643333Y-57220000D01*
X116719523Y-57296190D01*
X116757619Y-57372380D01*
X116795714Y-57524761D01*
X116795714Y-57639047D01*
X116757619Y-57791428D01*
X116719523Y-57867619D01*
X116643333Y-57943809D01*
X116529047Y-57981904D01*
X116338571Y-57981904D01*
X117100476Y-57753333D02*
X117481428Y-57753333D01*
X117024285Y-57981904D02*
X117290952Y-57181904D01*
X117557619Y-57981904D01*
X115557619Y-60483809D02*
X115671904Y-60521904D01*
X115862380Y-60521904D01*
X115938571Y-60483809D01*
X115976666Y-60445714D01*
X116014761Y-60369523D01*
X116014761Y-60293333D01*
X115976666Y-60217142D01*
X115938571Y-60179047D01*
X115862380Y-60140952D01*
X115710000Y-60102857D01*
X115633809Y-60064761D01*
X115595714Y-60026666D01*
X115557619Y-59950476D01*
X115557619Y-59874285D01*
X115595714Y-59798095D01*
X115633809Y-59760000D01*
X115710000Y-59721904D01*
X115900476Y-59721904D01*
X116014761Y-59760000D01*
X116814761Y-60445714D02*
X116776666Y-60483809D01*
X116662380Y-60521904D01*
X116586190Y-60521904D01*
X116471904Y-60483809D01*
X116395714Y-60407619D01*
X116357619Y-60331428D01*
X116319523Y-60179047D01*
X116319523Y-60064761D01*
X116357619Y-59912380D01*
X116395714Y-59836190D01*
X116471904Y-59760000D01*
X116586190Y-59721904D01*
X116662380Y-59721904D01*
X116776666Y-59760000D01*
X116814761Y-59798095D01*
X117538571Y-60521904D02*
X117157619Y-60521904D01*
X117157619Y-59721904D01*
X116771904Y-62200000D02*
X116676666Y-62152380D01*
X116533809Y-62152380D01*
X116390952Y-62200000D01*
X116295714Y-62295238D01*
X116248095Y-62390476D01*
X116200476Y-62580952D01*
X116200476Y-62723809D01*
X116248095Y-62914285D01*
X116295714Y-63009523D01*
X116390952Y-63104761D01*
X116533809Y-63152380D01*
X116629047Y-63152380D01*
X116771904Y-63104761D01*
X116819523Y-63057142D01*
X116819523Y-62723809D01*
X116629047Y-62723809D01*
X116176666Y-64692380D02*
X116510000Y-65692380D01*
X116843333Y-64692380D01*
X83014095Y-79853380D02*
X83014095Y-78853380D01*
X83347428Y-79567666D01*
X83680761Y-78853380D01*
X83680761Y-79853380D01*
X84156952Y-79853380D02*
X84156952Y-78853380D01*
X84728380Y-79853380D02*
X84299809Y-79281952D01*
X84728380Y-78853380D02*
X84156952Y-79424809D01*
X85109333Y-79805761D02*
X85252190Y-79853380D01*
X85490285Y-79853380D01*
X85585523Y-79805761D01*
X85633142Y-79758142D01*
X85680761Y-79662904D01*
X85680761Y-79567666D01*
X85633142Y-79472428D01*
X85585523Y-79424809D01*
X85490285Y-79377190D01*
X85299809Y-79329571D01*
X85204571Y-79281952D01*
X85156952Y-79234333D01*
X85109333Y-79139095D01*
X85109333Y-79043857D01*
X85156952Y-78948619D01*
X85204571Y-78901000D01*
X85299809Y-78853380D01*
X85537904Y-78853380D01*
X85680761Y-78901000D01*
X86109333Y-79853380D02*
X86109333Y-78853380D01*
X86490285Y-78853380D01*
X86585523Y-78901000D01*
X86633142Y-78948619D01*
X86680761Y-79043857D01*
X86680761Y-79186714D01*
X86633142Y-79281952D01*
X86585523Y-79329571D01*
X86490285Y-79377190D01*
X86109333Y-79377190D01*
X87014095Y-78853380D02*
X87633142Y-78853380D01*
X87299809Y-79234333D01*
X87442666Y-79234333D01*
X87537904Y-79281952D01*
X87585523Y-79329571D01*
X87633142Y-79424809D01*
X87633142Y-79662904D01*
X87585523Y-79758142D01*
X87537904Y-79805761D01*
X87442666Y-79853380D01*
X87156952Y-79853380D01*
X87061714Y-79805761D01*
X87014095Y-79758142D01*
X88014095Y-78948619D02*
X88061714Y-78901000D01*
X88156952Y-78853380D01*
X88395047Y-78853380D01*
X88490285Y-78901000D01*
X88537904Y-78948619D01*
X88585523Y-79043857D01*
X88585523Y-79139095D01*
X88537904Y-79281952D01*
X87966476Y-79853380D01*
X88585523Y-79853380D01*
X84347428Y-80836714D02*
X84585523Y-81503380D01*
X84823619Y-80836714D01*
X85395047Y-80503380D02*
X85490285Y-80503380D01*
X85585523Y-80551000D01*
X85633142Y-80598619D01*
X85680761Y-80693857D01*
X85728380Y-80884333D01*
X85728380Y-81122428D01*
X85680761Y-81312904D01*
X85633142Y-81408142D01*
X85585523Y-81455761D01*
X85490285Y-81503380D01*
X85395047Y-81503380D01*
X85299809Y-81455761D01*
X85252190Y-81408142D01*
X85204571Y-81312904D01*
X85156952Y-81122428D01*
X85156952Y-80884333D01*
X85204571Y-80693857D01*
X85252190Y-80598619D01*
X85299809Y-80551000D01*
X85395047Y-80503380D01*
X86156952Y-81408142D02*
X86204571Y-81455761D01*
X86156952Y-81503380D01*
X86109333Y-81455761D01*
X86156952Y-81408142D01*
X86156952Y-81503380D01*
X87156952Y-81503380D02*
X86585523Y-81503380D01*
X86871238Y-81503380D02*
X86871238Y-80503380D01*
X86776000Y-80646238D01*
X86680761Y-80741476D01*
X86585523Y-80789095D01*
X86114285Y-66404761D02*
X86257142Y-66452380D01*
X86495238Y-66452380D01*
X86590476Y-66404761D01*
X86638095Y-66357142D01*
X86685714Y-66261904D01*
X86685714Y-66166666D01*
X86638095Y-66071428D01*
X86590476Y-66023809D01*
X86495238Y-65976190D01*
X86304761Y-65928571D01*
X86209523Y-65880952D01*
X86161904Y-65833333D01*
X86114285Y-65738095D01*
X86114285Y-65642857D01*
X86161904Y-65547619D01*
X86209523Y-65500000D01*
X86304761Y-65452380D01*
X86542857Y-65452380D01*
X86685714Y-65500000D01*
X83666666Y-65452380D02*
X84000000Y-66452380D01*
X84333333Y-65452380D01*
X81661904Y-65500000D02*
X81566666Y-65452380D01*
X81423809Y-65452380D01*
X81280952Y-65500000D01*
X81185714Y-65595238D01*
X81138095Y-65690476D01*
X81090476Y-65880952D01*
X81090476Y-66023809D01*
X81138095Y-66214285D01*
X81185714Y-66309523D01*
X81280952Y-66404761D01*
X81423809Y-66452380D01*
X81519047Y-66452380D01*
X81661904Y-66404761D01*
X81709523Y-66357142D01*
X81709523Y-66023809D01*
X81519047Y-66023809D01*
X115621095Y-48309380D02*
X116192523Y-48309380D01*
X115906809Y-49309380D02*
X115906809Y-48309380D01*
X116430619Y-48309380D02*
X117097285Y-49309380D01*
X117097285Y-48309380D02*
X116430619Y-49309380D01*
X116216333Y-51976380D02*
X115883000Y-51500190D01*
X115644904Y-51976380D02*
X115644904Y-50976380D01*
X116025857Y-50976380D01*
X116121095Y-51024000D01*
X116168714Y-51071619D01*
X116216333Y-51166857D01*
X116216333Y-51309714D01*
X116168714Y-51404952D01*
X116121095Y-51452571D01*
X116025857Y-51500190D01*
X115644904Y-51500190D01*
X116549666Y-50976380D02*
X117216333Y-51976380D01*
X117216333Y-50976380D02*
X116549666Y-51976380D01*
X116049666Y-45769380D02*
X116383000Y-46769380D01*
X116716333Y-45769380D01*
X116644904Y-43277000D02*
X116549666Y-43229380D01*
X116406809Y-43229380D01*
X116263952Y-43277000D01*
X116168714Y-43372238D01*
X116121095Y-43467476D01*
X116073476Y-43657952D01*
X116073476Y-43800809D01*
X116121095Y-43991285D01*
X116168714Y-44086523D01*
X116263952Y-44181761D01*
X116406809Y-44229380D01*
X116502047Y-44229380D01*
X116644904Y-44181761D01*
X116692523Y-44134142D01*
X116692523Y-43800809D01*
X116502047Y-43800809D01*
X86855523Y-71727380D02*
X86379333Y-71727380D01*
X86331714Y-72203571D01*
X86379333Y-72155952D01*
X86474571Y-72108333D01*
X86712666Y-72108333D01*
X86807904Y-72155952D01*
X86855523Y-72203571D01*
X86903142Y-72298809D01*
X86903142Y-72536904D01*
X86855523Y-72632142D01*
X86807904Y-72679761D01*
X86712666Y-72727380D01*
X86474571Y-72727380D01*
X86379333Y-72679761D01*
X86331714Y-72632142D01*
X87188857Y-71727380D02*
X87522190Y-72727380D01*
X87855523Y-71727380D01*
X79965904Y-71727380D02*
X80584952Y-71727380D01*
X80251619Y-72108333D01*
X80394476Y-72108333D01*
X80489714Y-72155952D01*
X80537333Y-72203571D01*
X80584952Y-72298809D01*
X80584952Y-72536904D01*
X80537333Y-72632142D01*
X80489714Y-72679761D01*
X80394476Y-72727380D01*
X80108761Y-72727380D01*
X80013523Y-72679761D01*
X79965904Y-72632142D01*
X80870666Y-71727380D02*
X81204000Y-72727380D01*
X81537333Y-71727380D01*
X81775428Y-71727380D02*
X82394476Y-71727380D01*
X82061142Y-72108333D01*
X82204000Y-72108333D01*
X82299238Y-72155952D01*
X82346857Y-72203571D01*
X82394476Y-72298809D01*
X82394476Y-72536904D01*
X82346857Y-72632142D01*
X82299238Y-72679761D01*
X82204000Y-72727380D01*
X81918285Y-72727380D01*
X81823047Y-72679761D01*
X81775428Y-72632142D01*
D11*
X98750000Y-75900000D02*
G75*
G03X98750000Y-75900000I-100000J0D01*
G01*
D12*
X96300000Y-81450000D02*
X103700000Y-81450000D01*
X103700000Y-81180000D02*
X103700000Y-81450000D01*
X96300000Y-81450000D02*
X96300000Y-81180000D01*
X103700000Y-77150000D02*
X103520000Y-77150000D01*
X96300000Y-77150000D02*
X96480000Y-77150000D01*
X103700000Y-77150000D02*
X103700000Y-78905000D01*
X96300000Y-77150000D02*
X96300000Y-78905000D01*
D13*
X115046000Y-56290000D02*
X112386000Y-56290000D01*
X115046000Y-63970000D02*
X115046000Y-56290000D01*
X112386000Y-63970000D02*
X112386000Y-56290000D01*
X115046000Y-63970000D02*
X112386000Y-63970000D01*
X115046000Y-65240000D02*
X115046000Y-66570000D01*
X115046000Y-66570000D02*
X113716000Y-66570000D01*
D11*
X96410000Y-67639000D02*
X98210000Y-67639000D01*
X98560000Y-73989000D02*
X98560000Y-67489000D01*
X102060000Y-73989000D02*
X98560000Y-73989000D01*
X102060000Y-67489000D02*
X102060000Y-73989000D01*
X98560000Y-67489000D02*
X102060000Y-67489000D01*
D13*
X112386000Y-42447000D02*
X113716000Y-42447000D01*
X112386000Y-43777000D02*
X112386000Y-42447000D01*
X112386000Y-45047000D02*
X115046000Y-45047000D01*
X115046000Y-45047000D02*
X115046000Y-52727000D01*
X112386000Y-45047000D02*
X112386000Y-52727000D01*
X112386000Y-52727000D02*
X115046000Y-52727000D01*
X80128000Y-47012000D02*
X80128000Y-45682000D01*
X81458000Y-47012000D02*
X80128000Y-47012000D01*
X82728000Y-47012000D02*
X82728000Y-44352000D01*
X82728000Y-44352000D02*
X87868000Y-44352000D01*
X82728000Y-47012000D02*
X87868000Y-47012000D01*
X87868000Y-47012000D02*
X87868000Y-44352000D01*
X80130000Y-44450001D02*
X80130000Y-43120001D01*
X81460000Y-44450001D02*
X80130000Y-44450001D01*
X82730000Y-44450001D02*
X82730000Y-41790001D01*
X82730000Y-41790001D02*
X87870000Y-41790001D01*
X82730000Y-44450001D02*
X87870000Y-44450001D01*
X87870000Y-44450001D02*
X87870000Y-41790001D01*
X80128000Y-52092000D02*
X80128000Y-50762000D01*
X81458000Y-52092000D02*
X80128000Y-52092000D01*
X82728000Y-52092000D02*
X82728000Y-49432000D01*
X82728000Y-49432000D02*
X87868000Y-49432000D01*
X82728000Y-52092000D02*
X87868000Y-52092000D01*
X87868000Y-52092000D02*
X87868000Y-49432000D01*
X80130000Y-49552000D02*
X80130000Y-48222000D01*
X81460000Y-49552000D02*
X80130000Y-49552000D01*
X82730000Y-49552000D02*
X82730000Y-46892000D01*
X82730000Y-46892000D02*
X87870000Y-46892000D01*
X82730000Y-49552000D02*
X87870000Y-49552000D01*
X87870000Y-49552000D02*
X87870000Y-46892000D01*
X80128000Y-59712000D02*
X80128000Y-58382000D01*
X81458000Y-59712000D02*
X80128000Y-59712000D01*
X82728000Y-59712000D02*
X82728000Y-57052000D01*
X82728000Y-57052000D02*
X87868000Y-57052000D01*
X82728000Y-59712000D02*
X87868000Y-59712000D01*
X87868000Y-59712000D02*
X87868000Y-57052000D01*
X80128000Y-57172000D02*
X80128000Y-55842000D01*
X81458000Y-57172000D02*
X80128000Y-57172000D01*
X82728000Y-57172000D02*
X82728000Y-54512000D01*
X82728000Y-54512000D02*
X87868000Y-54512000D01*
X82728000Y-57172000D02*
X87868000Y-57172000D01*
X87868000Y-57172000D02*
X87868000Y-54512000D01*
X80130000Y-54632000D02*
X80130000Y-53302000D01*
X81460000Y-54632000D02*
X80130000Y-54632000D01*
X82730000Y-54632000D02*
X82730000Y-51972000D01*
X82730000Y-51972000D02*
X87870000Y-51972000D01*
X82730000Y-54632000D02*
X87870000Y-54632000D01*
X87870000Y-54632000D02*
X87870000Y-51972000D01*
X80128000Y-62252000D02*
X80128000Y-60922000D01*
X81458000Y-62252000D02*
X80128000Y-62252000D01*
X82728000Y-62252000D02*
X82728000Y-59592000D01*
X82728000Y-59592000D02*
X87868000Y-59592000D01*
X82728000Y-62252000D02*
X87868000Y-62252000D01*
X87868000Y-62252000D02*
X87868000Y-59592000D01*
X80128000Y-64792000D02*
X80128000Y-63462000D01*
X81458000Y-64792000D02*
X80128000Y-64792000D01*
X82728000Y-64792000D02*
X82728000Y-62132000D01*
X82728000Y-62132000D02*
X87868000Y-62132000D01*
X82728000Y-64792000D02*
X87868000Y-64792000D01*
X87868000Y-64792000D02*
X87868000Y-62132000D01*
X90880000Y-59100000D02*
X90880000Y-59880000D01*
X90880000Y-59880000D02*
X91880000Y-59880000D01*
X109120000Y-59100000D02*
X109120000Y-59880000D01*
X109120000Y-59880000D02*
X108120000Y-59880000D01*
X90880000Y-34135000D02*
X109120000Y-34135000D01*
X109120000Y-34135000D02*
X109120000Y-40555000D01*
X90880000Y-34135000D02*
X90880000Y-40555000D01*
X90880000Y-40555000D02*
X90500000Y-40555000D01*
X80128000Y-70888000D02*
X80128000Y-69558000D01*
X81458000Y-70888000D02*
X80128000Y-70888000D01*
X82728000Y-70888000D02*
X82728000Y-68228000D01*
X82728000Y-68228000D02*
X87868000Y-68228000D01*
X82728000Y-70888000D02*
X87868000Y-70888000D01*
X87868000Y-70888000D02*
X87868000Y-68228000D01*
X106185500Y-68015724D02*
X106185500Y-67506276D01*
X107230500Y-68015724D02*
X107230500Y-67506276D01*
X110174500Y-67506276D02*
X110174500Y-68015724D01*
X109129500Y-67506276D02*
X109129500Y-68015724D01*
X109142000Y-71629267D02*
X109142000Y-71336733D01*
X110162000Y-71629267D02*
X110162000Y-71336733D01*
X106198000Y-71654267D02*
X106198000Y-71311733D01*
X107218000Y-71654267D02*
X107218000Y-71311733D01*
X103771267Y-65290000D02*
X103428733Y-65290000D01*
X103771267Y-66310000D02*
X103428733Y-66310000D01*
X99296267Y-66292000D02*
X98953733Y-66292000D01*
X99296267Y-65272000D02*
X98953733Y-65272000D01*
X90176733Y-65290000D02*
X90519267Y-65290000D01*
X90176733Y-66310000D02*
X90519267Y-66310000D01*
X99296267Y-62224000D02*
X98953733Y-62224000D01*
X99296267Y-63244000D02*
X98953733Y-63244000D01*
X90176733Y-63244000D02*
X90519267Y-63244000D01*
X90176733Y-62224000D02*
X90519267Y-62224000D01*
X103727267Y-63244000D02*
X103384733Y-63244000D01*
X103727267Y-62224000D02*
X103384733Y-62224000D01*
X94743000Y-69671500D02*
X94743000Y-67211500D01*
X94743000Y-67211500D02*
X93273000Y-67211500D01*
X93273000Y-67211500D02*
X93273000Y-69671500D01*
X93458000Y-72907517D02*
X93458000Y-72564983D01*
X94478000Y-72907517D02*
X94478000Y-72564983D01*
X94663733Y-66292000D02*
X95006267Y-66292000D01*
X94663733Y-65272000D02*
X95006267Y-65272000D01*
X89700000Y-82400000D02*
X94200000Y-82400000D01*
X94200000Y-82400000D02*
X94200000Y-75600000D01*
X94200000Y-75600000D02*
X89700000Y-75600000D01*
X89700000Y-75600000D02*
X89700000Y-82400000D01*
X92950000Y-79000000D02*
G75*
G03X92950000Y-79000000I-1000000J0D01*
G01*
X108950000Y-79000000D02*
G75*
G03X108950000Y-79000000I-1000000J0D01*
G01*
X105700000Y-75600000D02*
X105700000Y-82400000D01*
X110200000Y-75600000D02*
X105700000Y-75600000D01*
X110200000Y-82400000D02*
X110200000Y-75600000D01*
X105700000Y-82400000D02*
X110200000Y-82400000D01*
D10*
X101866349Y-75051859D02*
X101866349Y-75766825D01*
X101818684Y-75909818D01*
X101723355Y-76005147D01*
X101580362Y-76052812D01*
X101485033Y-76052812D01*
X102867302Y-76052812D02*
X102295328Y-76052812D01*
X102581315Y-76052812D02*
X102581315Y-75051859D01*
X102485986Y-75194852D01*
X102390657Y-75290181D01*
X102295328Y-75337845D01*
X111882380Y-62628380D02*
X110882380Y-62628380D01*
X110977619Y-62199809D02*
X110930000Y-62152190D01*
X110882380Y-62056952D01*
X110882380Y-61818857D01*
X110930000Y-61723619D01*
X110977619Y-61676000D01*
X111072857Y-61628380D01*
X111168095Y-61628380D01*
X111310952Y-61676000D01*
X111882380Y-62247428D01*
X111882380Y-61628380D01*
X111787142Y-60628380D02*
X111834761Y-60676000D01*
X111882380Y-60818857D01*
X111882380Y-60914095D01*
X111834761Y-61056952D01*
X111739523Y-61152190D01*
X111644285Y-61199809D01*
X111453809Y-61247428D01*
X111310952Y-61247428D01*
X111120476Y-61199809D01*
X111025238Y-61152190D01*
X110930000Y-61056952D01*
X110882380Y-60914095D01*
X110882380Y-60818857D01*
X110930000Y-60676000D01*
X110977619Y-60628380D01*
X111882380Y-59676000D02*
X111882380Y-60247428D01*
X111882380Y-59961714D02*
X110882380Y-59961714D01*
X111025238Y-60056952D01*
X111120476Y-60152190D01*
X111168095Y-60247428D01*
D14*
X98767857Y-71313523D02*
X98767857Y-70043523D01*
X99251666Y-70043523D01*
X99372619Y-70104000D01*
X99433095Y-70164476D01*
X99493571Y-70285428D01*
X99493571Y-70466857D01*
X99433095Y-70587809D01*
X99372619Y-70648285D01*
X99251666Y-70708761D01*
X98767857Y-70708761D01*
X99977380Y-71253047D02*
X100158809Y-71313523D01*
X100461190Y-71313523D01*
X100582142Y-71253047D01*
X100642619Y-71192571D01*
X100703095Y-71071619D01*
X100703095Y-70950666D01*
X100642619Y-70829714D01*
X100582142Y-70769238D01*
X100461190Y-70708761D01*
X100219285Y-70648285D01*
X100098333Y-70587809D01*
X100037857Y-70527333D01*
X99977380Y-70406380D01*
X99977380Y-70285428D01*
X100037857Y-70164476D01*
X100098333Y-70104000D01*
X100219285Y-70043523D01*
X100521666Y-70043523D01*
X100703095Y-70104000D01*
X101912619Y-71313523D02*
X101186904Y-71313523D01*
X101549761Y-71313523D02*
X101549761Y-70043523D01*
X101428809Y-70224952D01*
X101307857Y-70345904D01*
X101186904Y-70406380D01*
D10*
X110628380Y-49785428D02*
X111437904Y-49785428D01*
X111533142Y-49737809D01*
X111580761Y-49690190D01*
X111628380Y-49594952D01*
X111628380Y-49404476D01*
X111580761Y-49309238D01*
X111533142Y-49261619D01*
X111437904Y-49214000D01*
X110628380Y-49214000D01*
X111342666Y-48785428D02*
X111342666Y-48309238D01*
X111628380Y-48880666D02*
X110628380Y-48547333D01*
X111628380Y-48214000D01*
X111628380Y-47309238D02*
X111152190Y-47642571D01*
X111628380Y-47880666D02*
X110628380Y-47880666D01*
X110628380Y-47499714D01*
X110676000Y-47404476D01*
X110723619Y-47356857D01*
X110818857Y-47309238D01*
X110961714Y-47309238D01*
X111056952Y-47356857D01*
X111104571Y-47404476D01*
X111152190Y-47499714D01*
X111152190Y-47880666D01*
X110628380Y-47023523D02*
X110628380Y-46452095D01*
X111628380Y-46737809D02*
X110628380Y-46737809D01*
X111628380Y-45594952D02*
X111628380Y-46166380D01*
X111628380Y-45880666D02*
X110628380Y-45880666D01*
X110771238Y-45975904D01*
X110866476Y-46071142D01*
X110914095Y-46166380D01*
X76689809Y-46134380D02*
X76689809Y-45134380D01*
X77356476Y-45134380D02*
X77546952Y-45134380D01*
X77642190Y-45182000D01*
X77737428Y-45277238D01*
X77785047Y-45467714D01*
X77785047Y-45801047D01*
X77737428Y-45991523D01*
X77642190Y-46086761D01*
X77546952Y-46134380D01*
X77356476Y-46134380D01*
X77261238Y-46086761D01*
X77166000Y-45991523D01*
X77118380Y-45801047D01*
X77118380Y-45467714D01*
X77166000Y-45277238D01*
X77261238Y-45182000D01*
X77356476Y-45134380D01*
X78118380Y-45134380D02*
X78737428Y-45134380D01*
X78404095Y-45515333D01*
X78546952Y-45515333D01*
X78642190Y-45562952D01*
X78689809Y-45610571D01*
X78737428Y-45705809D01*
X78737428Y-45943904D01*
X78689809Y-46039142D01*
X78642190Y-46086761D01*
X78546952Y-46134380D01*
X78261238Y-46134380D01*
X78166000Y-46086761D01*
X78118380Y-46039142D01*
X79642190Y-45134380D02*
X79166000Y-45134380D01*
X79118380Y-45610571D01*
X79166000Y-45562952D01*
X79261238Y-45515333D01*
X79499333Y-45515333D01*
X79594571Y-45562952D01*
X79642190Y-45610571D01*
X79689809Y-45705809D01*
X79689809Y-45943904D01*
X79642190Y-46039142D01*
X79594571Y-46086761D01*
X79499333Y-46134380D01*
X79261238Y-46134380D01*
X79166000Y-46086761D01*
X79118380Y-46039142D01*
X76691809Y-43572381D02*
X76691809Y-42572381D01*
X77358476Y-42572381D02*
X77548952Y-42572381D01*
X77644190Y-42620001D01*
X77739428Y-42715239D01*
X77787047Y-42905715D01*
X77787047Y-43239048D01*
X77739428Y-43429524D01*
X77644190Y-43524762D01*
X77548952Y-43572381D01*
X77358476Y-43572381D01*
X77263238Y-43524762D01*
X77168000Y-43429524D01*
X77120380Y-43239048D01*
X77120380Y-42905715D01*
X77168000Y-42715239D01*
X77263238Y-42620001D01*
X77358476Y-42572381D01*
X78120380Y-42572381D02*
X78739428Y-42572381D01*
X78406095Y-42953334D01*
X78548952Y-42953334D01*
X78644190Y-43000953D01*
X78691809Y-43048572D01*
X78739428Y-43143810D01*
X78739428Y-43381905D01*
X78691809Y-43477143D01*
X78644190Y-43524762D01*
X78548952Y-43572381D01*
X78263238Y-43572381D01*
X78168000Y-43524762D01*
X78120380Y-43477143D01*
X79596571Y-42905715D02*
X79596571Y-43572381D01*
X79358476Y-42524762D02*
X79120380Y-43239048D01*
X79739428Y-43239048D01*
X76689809Y-51214380D02*
X76689809Y-50214380D01*
X77356476Y-50214380D02*
X77546952Y-50214380D01*
X77642190Y-50262000D01*
X77737428Y-50357238D01*
X77785047Y-50547714D01*
X77785047Y-50881047D01*
X77737428Y-51071523D01*
X77642190Y-51166761D01*
X77546952Y-51214380D01*
X77356476Y-51214380D01*
X77261238Y-51166761D01*
X77166000Y-51071523D01*
X77118380Y-50881047D01*
X77118380Y-50547714D01*
X77166000Y-50357238D01*
X77261238Y-50262000D01*
X77356476Y-50214380D01*
X78118380Y-50214380D02*
X78737428Y-50214380D01*
X78404095Y-50595333D01*
X78546952Y-50595333D01*
X78642190Y-50642952D01*
X78689809Y-50690571D01*
X78737428Y-50785809D01*
X78737428Y-51023904D01*
X78689809Y-51119142D01*
X78642190Y-51166761D01*
X78546952Y-51214380D01*
X78261238Y-51214380D01*
X78166000Y-51166761D01*
X78118380Y-51119142D01*
X79070761Y-50214380D02*
X79689809Y-50214380D01*
X79356476Y-50595333D01*
X79499333Y-50595333D01*
X79594571Y-50642952D01*
X79642190Y-50690571D01*
X79689809Y-50785809D01*
X79689809Y-51023904D01*
X79642190Y-51119142D01*
X79594571Y-51166761D01*
X79499333Y-51214380D01*
X79213619Y-51214380D01*
X79118380Y-51166761D01*
X79070761Y-51119142D01*
X76691809Y-48674380D02*
X76691809Y-47674380D01*
X77358476Y-47674380D02*
X77548952Y-47674380D01*
X77644190Y-47722000D01*
X77739428Y-47817238D01*
X77787047Y-48007714D01*
X77787047Y-48341047D01*
X77739428Y-48531523D01*
X77644190Y-48626761D01*
X77548952Y-48674380D01*
X77358476Y-48674380D01*
X77263238Y-48626761D01*
X77168000Y-48531523D01*
X77120380Y-48341047D01*
X77120380Y-48007714D01*
X77168000Y-47817238D01*
X77263238Y-47722000D01*
X77358476Y-47674380D01*
X78120380Y-47674380D02*
X78739428Y-47674380D01*
X78406095Y-48055333D01*
X78548952Y-48055333D01*
X78644190Y-48102952D01*
X78691809Y-48150571D01*
X78739428Y-48245809D01*
X78739428Y-48483904D01*
X78691809Y-48579142D01*
X78644190Y-48626761D01*
X78548952Y-48674380D01*
X78263238Y-48674380D01*
X78168000Y-48626761D01*
X78120380Y-48579142D01*
X79120380Y-47769619D02*
X79168000Y-47722000D01*
X79263238Y-47674380D01*
X79501333Y-47674380D01*
X79596571Y-47722000D01*
X79644190Y-47769619D01*
X79691809Y-47864857D01*
X79691809Y-47960095D01*
X79644190Y-48102952D01*
X79072761Y-48674380D01*
X79691809Y-48674380D01*
X76689809Y-58834380D02*
X76689809Y-57834380D01*
X77356476Y-57834380D02*
X77546952Y-57834380D01*
X77642190Y-57882000D01*
X77737428Y-57977238D01*
X77785047Y-58167714D01*
X77785047Y-58501047D01*
X77737428Y-58691523D01*
X77642190Y-58786761D01*
X77546952Y-58834380D01*
X77356476Y-58834380D01*
X77261238Y-58786761D01*
X77166000Y-58691523D01*
X77118380Y-58501047D01*
X77118380Y-58167714D01*
X77166000Y-57977238D01*
X77261238Y-57882000D01*
X77356476Y-57834380D01*
X78166000Y-57929619D02*
X78213619Y-57882000D01*
X78308857Y-57834380D01*
X78546952Y-57834380D01*
X78642190Y-57882000D01*
X78689809Y-57929619D01*
X78737428Y-58024857D01*
X78737428Y-58120095D01*
X78689809Y-58262952D01*
X78118380Y-58834380D01*
X78737428Y-58834380D01*
X79070761Y-57834380D02*
X79737428Y-57834380D01*
X79308857Y-58834380D01*
X76689809Y-56294380D02*
X76689809Y-55294380D01*
X77356476Y-55294380D02*
X77546952Y-55294380D01*
X77642190Y-55342000D01*
X77737428Y-55437238D01*
X77785047Y-55627714D01*
X77785047Y-55961047D01*
X77737428Y-56151523D01*
X77642190Y-56246761D01*
X77546952Y-56294380D01*
X77356476Y-56294380D01*
X77261238Y-56246761D01*
X77166000Y-56151523D01*
X77118380Y-55961047D01*
X77118380Y-55627714D01*
X77166000Y-55437238D01*
X77261238Y-55342000D01*
X77356476Y-55294380D01*
X78166000Y-55389619D02*
X78213619Y-55342000D01*
X78308857Y-55294380D01*
X78546952Y-55294380D01*
X78642190Y-55342000D01*
X78689809Y-55389619D01*
X78737428Y-55484857D01*
X78737428Y-55580095D01*
X78689809Y-55722952D01*
X78118380Y-56294380D01*
X78737428Y-56294380D01*
X79594571Y-55294380D02*
X79404095Y-55294380D01*
X79308857Y-55342000D01*
X79261238Y-55389619D01*
X79166000Y-55532476D01*
X79118380Y-55722952D01*
X79118380Y-56103904D01*
X79166000Y-56199142D01*
X79213619Y-56246761D01*
X79308857Y-56294380D01*
X79499333Y-56294380D01*
X79594571Y-56246761D01*
X79642190Y-56199142D01*
X79689809Y-56103904D01*
X79689809Y-55865809D01*
X79642190Y-55770571D01*
X79594571Y-55722952D01*
X79499333Y-55675333D01*
X79308857Y-55675333D01*
X79213619Y-55722952D01*
X79166000Y-55770571D01*
X79118380Y-55865809D01*
X76691809Y-53754380D02*
X76691809Y-52754380D01*
X77358476Y-52754380D02*
X77548952Y-52754380D01*
X77644190Y-52802000D01*
X77739428Y-52897238D01*
X77787047Y-53087714D01*
X77787047Y-53421047D01*
X77739428Y-53611523D01*
X77644190Y-53706761D01*
X77548952Y-53754380D01*
X77358476Y-53754380D01*
X77263238Y-53706761D01*
X77168000Y-53611523D01*
X77120380Y-53421047D01*
X77120380Y-53087714D01*
X77168000Y-52897238D01*
X77263238Y-52802000D01*
X77358476Y-52754380D01*
X78168000Y-52849619D02*
X78215619Y-52802000D01*
X78310857Y-52754380D01*
X78548952Y-52754380D01*
X78644190Y-52802000D01*
X78691809Y-52849619D01*
X78739428Y-52944857D01*
X78739428Y-53040095D01*
X78691809Y-53182952D01*
X78120380Y-53754380D01*
X78739428Y-53754380D01*
X79644190Y-52754380D02*
X79168000Y-52754380D01*
X79120380Y-53230571D01*
X79168000Y-53182952D01*
X79263238Y-53135333D01*
X79501333Y-53135333D01*
X79596571Y-53182952D01*
X79644190Y-53230571D01*
X79691809Y-53325809D01*
X79691809Y-53563904D01*
X79644190Y-53659142D01*
X79596571Y-53706761D01*
X79501333Y-53754380D01*
X79263238Y-53754380D01*
X79168000Y-53706761D01*
X79120380Y-53659142D01*
X76689809Y-61374380D02*
X76689809Y-60374380D01*
X77356476Y-60374380D02*
X77546952Y-60374380D01*
X77642190Y-60422000D01*
X77737428Y-60517238D01*
X77785047Y-60707714D01*
X77785047Y-61041047D01*
X77737428Y-61231523D01*
X77642190Y-61326761D01*
X77546952Y-61374380D01*
X77356476Y-61374380D01*
X77261238Y-61326761D01*
X77166000Y-61231523D01*
X77118380Y-61041047D01*
X77118380Y-60707714D01*
X77166000Y-60517238D01*
X77261238Y-60422000D01*
X77356476Y-60374380D01*
X78737428Y-61374380D02*
X78166000Y-61374380D01*
X78451714Y-61374380D02*
X78451714Y-60374380D01*
X78356476Y-60517238D01*
X78261238Y-60612476D01*
X78166000Y-60660095D01*
X79594571Y-60707714D02*
X79594571Y-61374380D01*
X79356476Y-60326761D02*
X79118380Y-61041047D01*
X79737428Y-61041047D01*
X76689809Y-63914380D02*
X76689809Y-62914380D01*
X77356476Y-62914380D02*
X77546952Y-62914380D01*
X77642190Y-62962000D01*
X77737428Y-63057238D01*
X77785047Y-63247714D01*
X77785047Y-63581047D01*
X77737428Y-63771523D01*
X77642190Y-63866761D01*
X77546952Y-63914380D01*
X77356476Y-63914380D01*
X77261238Y-63866761D01*
X77166000Y-63771523D01*
X77118380Y-63581047D01*
X77118380Y-63247714D01*
X77166000Y-63057238D01*
X77261238Y-62962000D01*
X77356476Y-62914380D01*
X78737428Y-63914380D02*
X78166000Y-63914380D01*
X78451714Y-63914380D02*
X78451714Y-62914380D01*
X78356476Y-63057238D01*
X78261238Y-63152476D01*
X78166000Y-63200095D01*
X79118380Y-63009619D02*
X79166000Y-62962000D01*
X79261238Y-62914380D01*
X79499333Y-62914380D01*
X79594571Y-62962000D01*
X79642190Y-63009619D01*
X79689809Y-63104857D01*
X79689809Y-63200095D01*
X79642190Y-63342952D01*
X79070761Y-63914380D01*
X79689809Y-63914380D01*
X88842380Y-59191904D02*
X89651904Y-59191904D01*
X89747142Y-59144285D01*
X89794761Y-59096666D01*
X89842380Y-59001428D01*
X89842380Y-58810952D01*
X89794761Y-58715714D01*
X89747142Y-58668095D01*
X89651904Y-58620476D01*
X88842380Y-58620476D01*
X89842380Y-57620476D02*
X89842380Y-58191904D01*
X89842380Y-57906190D02*
X88842380Y-57906190D01*
X88985238Y-58001428D01*
X89080476Y-58096666D01*
X89128095Y-58191904D01*
X78580380Y-69891333D02*
X79294666Y-69891333D01*
X79437523Y-69938952D01*
X79532761Y-70034190D01*
X79580380Y-70177047D01*
X79580380Y-70272285D01*
X78675619Y-69462761D02*
X78628000Y-69415142D01*
X78580380Y-69319904D01*
X78580380Y-69081809D01*
X78628000Y-68986571D01*
X78675619Y-68938952D01*
X78770857Y-68891333D01*
X78866095Y-68891333D01*
X79008952Y-68938952D01*
X79580380Y-69510380D01*
X79580380Y-68891333D01*
X105760380Y-67927666D02*
X105284190Y-68261000D01*
X105760380Y-68499095D02*
X104760380Y-68499095D01*
X104760380Y-68118142D01*
X104808000Y-68022904D01*
X104855619Y-67975285D01*
X104950857Y-67927666D01*
X105093714Y-67927666D01*
X105188952Y-67975285D01*
X105236571Y-68022904D01*
X105284190Y-68118142D01*
X105284190Y-68499095D01*
X105093714Y-67070523D02*
X105760380Y-67070523D01*
X104712761Y-67308619D02*
X105427047Y-67546714D01*
X105427047Y-66927666D01*
X108704380Y-67927666D02*
X108228190Y-68261000D01*
X108704380Y-68499095D02*
X107704380Y-68499095D01*
X107704380Y-68118142D01*
X107752000Y-68022904D01*
X107799619Y-67975285D01*
X107894857Y-67927666D01*
X108037714Y-67927666D01*
X108132952Y-67975285D01*
X108180571Y-68022904D01*
X108228190Y-68118142D01*
X108228190Y-68499095D01*
X107704380Y-67594333D02*
X107704380Y-66975285D01*
X108085333Y-67308619D01*
X108085333Y-67165761D01*
X108132952Y-67070523D01*
X108180571Y-67022904D01*
X108275809Y-66975285D01*
X108513904Y-66975285D01*
X108609142Y-67022904D01*
X108656761Y-67070523D01*
X108704380Y-67165761D01*
X108704380Y-67451476D01*
X108656761Y-67546714D01*
X108609142Y-67594333D01*
X108579142Y-71649666D02*
X108626761Y-71697285D01*
X108674380Y-71840142D01*
X108674380Y-71935380D01*
X108626761Y-72078238D01*
X108531523Y-72173476D01*
X108436285Y-72221095D01*
X108245809Y-72268714D01*
X108102952Y-72268714D01*
X107912476Y-72221095D01*
X107817238Y-72173476D01*
X107722000Y-72078238D01*
X107674380Y-71935380D01*
X107674380Y-71840142D01*
X107722000Y-71697285D01*
X107769619Y-71649666D01*
X108102952Y-71078238D02*
X108055333Y-71173476D01*
X108007714Y-71221095D01*
X107912476Y-71268714D01*
X107864857Y-71268714D01*
X107769619Y-71221095D01*
X107722000Y-71173476D01*
X107674380Y-71078238D01*
X107674380Y-70887761D01*
X107722000Y-70792523D01*
X107769619Y-70744904D01*
X107864857Y-70697285D01*
X107912476Y-70697285D01*
X108007714Y-70744904D01*
X108055333Y-70792523D01*
X108102952Y-70887761D01*
X108102952Y-71078238D01*
X108150571Y-71173476D01*
X108198190Y-71221095D01*
X108293428Y-71268714D01*
X108483904Y-71268714D01*
X108579142Y-71221095D01*
X108626761Y-71173476D01*
X108674380Y-71078238D01*
X108674380Y-70887761D01*
X108626761Y-70792523D01*
X108579142Y-70744904D01*
X108483904Y-70697285D01*
X108293428Y-70697285D01*
X108198190Y-70744904D01*
X108150571Y-70792523D01*
X108102952Y-70887761D01*
X105635142Y-71566666D02*
X105682761Y-71614285D01*
X105730380Y-71757142D01*
X105730380Y-71852380D01*
X105682761Y-71995238D01*
X105587523Y-72090476D01*
X105492285Y-72138095D01*
X105301809Y-72185714D01*
X105158952Y-72185714D01*
X104968476Y-72138095D01*
X104873238Y-72090476D01*
X104778000Y-71995238D01*
X104730380Y-71852380D01*
X104730380Y-71757142D01*
X104778000Y-71614285D01*
X104825619Y-71566666D01*
X105730380Y-70614285D02*
X105730380Y-71185714D01*
X105730380Y-70900000D02*
X104730380Y-70900000D01*
X104873238Y-70995238D01*
X104968476Y-71090476D01*
X105016095Y-71185714D01*
X103433333Y-64757142D02*
X103385714Y-64804761D01*
X103242857Y-64852380D01*
X103147619Y-64852380D01*
X103004761Y-64804761D01*
X102909523Y-64709523D01*
X102861904Y-64614285D01*
X102814285Y-64423809D01*
X102814285Y-64280952D01*
X102861904Y-64090476D01*
X102909523Y-63995238D01*
X103004761Y-63900000D01*
X103147619Y-63852380D01*
X103242857Y-63852380D01*
X103385714Y-63900000D01*
X103433333Y-63947619D01*
X103814285Y-63947619D02*
X103861904Y-63900000D01*
X103957142Y-63852380D01*
X104195238Y-63852380D01*
X104290476Y-63900000D01*
X104338095Y-63947619D01*
X104385714Y-64042857D01*
X104385714Y-64138095D01*
X104338095Y-64280952D01*
X103766666Y-64852380D01*
X104385714Y-64852380D01*
X98845333Y-64615142D02*
X98797714Y-64662761D01*
X98654857Y-64710380D01*
X98559619Y-64710380D01*
X98416761Y-64662761D01*
X98321523Y-64567523D01*
X98273904Y-64472285D01*
X98226285Y-64281809D01*
X98226285Y-64138952D01*
X98273904Y-63948476D01*
X98321523Y-63853238D01*
X98416761Y-63758000D01*
X98559619Y-63710380D01*
X98654857Y-63710380D01*
X98797714Y-63758000D01*
X98845333Y-63805619D01*
X99178666Y-63710380D02*
X99797714Y-63710380D01*
X99464380Y-64091333D01*
X99607238Y-64091333D01*
X99702476Y-64138952D01*
X99750095Y-64186571D01*
X99797714Y-64281809D01*
X99797714Y-64519904D01*
X99750095Y-64615142D01*
X99702476Y-64662761D01*
X99607238Y-64710380D01*
X99321523Y-64710380D01*
X99226285Y-64662761D01*
X99178666Y-64615142D01*
X90181333Y-64727142D02*
X90133714Y-64774761D01*
X89990857Y-64822380D01*
X89895619Y-64822380D01*
X89752761Y-64774761D01*
X89657523Y-64679523D01*
X89609904Y-64584285D01*
X89562285Y-64393809D01*
X89562285Y-64250952D01*
X89609904Y-64060476D01*
X89657523Y-63965238D01*
X89752761Y-63870000D01*
X89895619Y-63822380D01*
X89990857Y-63822380D01*
X90133714Y-63870000D01*
X90181333Y-63917619D01*
X91038476Y-64155714D02*
X91038476Y-64822380D01*
X90800380Y-63774761D02*
X90562285Y-64489047D01*
X91181333Y-64489047D01*
X98958333Y-61567142D02*
X98910714Y-61614761D01*
X98767857Y-61662380D01*
X98672619Y-61662380D01*
X98529761Y-61614761D01*
X98434523Y-61519523D01*
X98386904Y-61424285D01*
X98339285Y-61233809D01*
X98339285Y-61090952D01*
X98386904Y-60900476D01*
X98434523Y-60805238D01*
X98529761Y-60710000D01*
X98672619Y-60662380D01*
X98767857Y-60662380D01*
X98910714Y-60710000D01*
X98958333Y-60757619D01*
X99863095Y-60662380D02*
X99386904Y-60662380D01*
X99339285Y-61138571D01*
X99386904Y-61090952D01*
X99482142Y-61043333D01*
X99720238Y-61043333D01*
X99815476Y-61090952D01*
X99863095Y-61138571D01*
X99910714Y-61233809D01*
X99910714Y-61471904D01*
X99863095Y-61567142D01*
X99815476Y-61614761D01*
X99720238Y-61662380D01*
X99482142Y-61662380D01*
X99386904Y-61614761D01*
X99339285Y-61567142D01*
X90181333Y-61533142D02*
X90133714Y-61580761D01*
X89990857Y-61628380D01*
X89895619Y-61628380D01*
X89752761Y-61580761D01*
X89657523Y-61485523D01*
X89609904Y-61390285D01*
X89562285Y-61199809D01*
X89562285Y-61056952D01*
X89609904Y-60866476D01*
X89657523Y-60771238D01*
X89752761Y-60676000D01*
X89895619Y-60628380D01*
X89990857Y-60628380D01*
X90133714Y-60676000D01*
X90181333Y-60723619D01*
X91038476Y-60628380D02*
X90848000Y-60628380D01*
X90752761Y-60676000D01*
X90705142Y-60723619D01*
X90609904Y-60866476D01*
X90562285Y-61056952D01*
X90562285Y-61437904D01*
X90609904Y-61533142D01*
X90657523Y-61580761D01*
X90752761Y-61628380D01*
X90943238Y-61628380D01*
X91038476Y-61580761D01*
X91086095Y-61533142D01*
X91133714Y-61437904D01*
X91133714Y-61199809D01*
X91086095Y-61104571D01*
X91038476Y-61056952D01*
X90943238Y-61009333D01*
X90752761Y-61009333D01*
X90657523Y-61056952D01*
X90609904Y-61104571D01*
X90562285Y-61199809D01*
X103389333Y-61533142D02*
X103341714Y-61580761D01*
X103198857Y-61628380D01*
X103103619Y-61628380D01*
X102960761Y-61580761D01*
X102865523Y-61485523D01*
X102817904Y-61390285D01*
X102770285Y-61199809D01*
X102770285Y-61056952D01*
X102817904Y-60866476D01*
X102865523Y-60771238D01*
X102960761Y-60676000D01*
X103103619Y-60628380D01*
X103198857Y-60628380D01*
X103341714Y-60676000D01*
X103389333Y-60723619D01*
X103722666Y-60628380D02*
X104389333Y-60628380D01*
X103960761Y-61628380D01*
X92936380Y-69609595D02*
X91936380Y-69609595D01*
X91936380Y-69371500D01*
X91984000Y-69228642D01*
X92079238Y-69133404D01*
X92174476Y-69085785D01*
X92364952Y-69038166D01*
X92507809Y-69038166D01*
X92698285Y-69085785D01*
X92793523Y-69133404D01*
X92888761Y-69228642D01*
X92936380Y-69371500D01*
X92936380Y-69609595D01*
X92936380Y-68085785D02*
X92936380Y-68657214D01*
X92936380Y-68371500D02*
X91936380Y-68371500D01*
X92079238Y-68466738D01*
X92174476Y-68561976D01*
X92222095Y-68657214D01*
X92990380Y-72902916D02*
X92514190Y-73236250D01*
X92990380Y-73474345D02*
X91990380Y-73474345D01*
X91990380Y-73093392D01*
X92038000Y-72998154D01*
X92085619Y-72950535D01*
X92180857Y-72902916D01*
X92323714Y-72902916D01*
X92418952Y-72950535D01*
X92466571Y-72998154D01*
X92514190Y-73093392D01*
X92514190Y-73474345D01*
X92990380Y-71950535D02*
X92990380Y-72521964D01*
X92990380Y-72236250D02*
X91990380Y-72236250D01*
X92133238Y-72331488D01*
X92228476Y-72426726D01*
X92276095Y-72521964D01*
X94668333Y-64804380D02*
X94335000Y-64328190D01*
X94096904Y-64804380D02*
X94096904Y-63804380D01*
X94477857Y-63804380D01*
X94573095Y-63852000D01*
X94620714Y-63899619D01*
X94668333Y-63994857D01*
X94668333Y-64137714D01*
X94620714Y-64232952D01*
X94573095Y-64280571D01*
X94477857Y-64328190D01*
X94096904Y-64328190D01*
X95049285Y-63899619D02*
X95096904Y-63852000D01*
X95192142Y-63804380D01*
X95430238Y-63804380D01*
X95525476Y-63852000D01*
X95573095Y-63899619D01*
X95620714Y-63994857D01*
X95620714Y-64090095D01*
X95573095Y-64232952D01*
X95001666Y-64804380D01*
X95620714Y-64804380D01*
X90538666Y-75296761D02*
X90681523Y-75344380D01*
X90919619Y-75344380D01*
X91014857Y-75296761D01*
X91062476Y-75249142D01*
X91110095Y-75153904D01*
X91110095Y-75058666D01*
X91062476Y-74963428D01*
X91014857Y-74915809D01*
X90919619Y-74868190D01*
X90729142Y-74820571D01*
X90633904Y-74772952D01*
X90586285Y-74725333D01*
X90538666Y-74630095D01*
X90538666Y-74534857D01*
X90586285Y-74439619D01*
X90633904Y-74392000D01*
X90729142Y-74344380D01*
X90967238Y-74344380D01*
X91110095Y-74392000D01*
X91443428Y-74344380D02*
X91681523Y-75344380D01*
X91872000Y-74630095D01*
X92062476Y-75344380D01*
X92300571Y-74344380D01*
X93205333Y-75344380D02*
X92633904Y-75344380D01*
X92919619Y-75344380D02*
X92919619Y-74344380D01*
X92824380Y-74487238D01*
X92729142Y-74582476D01*
X92633904Y-74630095D01*
X106540666Y-75296761D02*
X106683523Y-75344380D01*
X106921619Y-75344380D01*
X107016857Y-75296761D01*
X107064476Y-75249142D01*
X107112095Y-75153904D01*
X107112095Y-75058666D01*
X107064476Y-74963428D01*
X107016857Y-74915809D01*
X106921619Y-74868190D01*
X106731142Y-74820571D01*
X106635904Y-74772952D01*
X106588285Y-74725333D01*
X106540666Y-74630095D01*
X106540666Y-74534857D01*
X106588285Y-74439619D01*
X106635904Y-74392000D01*
X106731142Y-74344380D01*
X106969238Y-74344380D01*
X107112095Y-74392000D01*
X107445428Y-74344380D02*
X107683523Y-75344380D01*
X107874000Y-74630095D01*
X108064476Y-75344380D01*
X108302571Y-74344380D01*
X108635904Y-74439619D02*
X108683523Y-74392000D01*
X108778761Y-74344380D01*
X109016857Y-74344380D01*
X109112095Y-74392000D01*
X109159714Y-74439619D01*
X109207333Y-74534857D01*
X109207333Y-74630095D01*
X109159714Y-74772952D01*
X108588285Y-75344380D01*
X109207333Y-75344380D01*
M02*
